<svg width="371" height="72" viewBox="0 0 371 72" fill="none" xmlns="http://www.w3.org/2000/svg">
<path d="M55.68 36.2C55.68 32.904 56.416 29.96 57.888 27.368C59.392 24.744 61.424 22.712 63.984 21.272C66.576 19.8 69.472 19.064 72.672 19.064C76.416 19.064 79.696 20.024 82.512 21.944C85.328 23.864 87.296 26.52 88.416 29.912H80.688C79.92 28.312 78.832 27.112 77.424 26.312C76.048 25.512 74.448 25.112 72.624 25.112C70.672 25.112 68.928 25.576 67.392 26.504C65.888 27.4 64.704 28.68 63.84 30.344C63.008 32.008 62.592 33.96 62.592 36.2C62.592 38.408 63.008 40.36 63.84 42.056C64.704 43.72 65.888 45.016 67.392 45.944C68.928 46.84 70.672 47.288 72.624 47.288C74.448 47.288 76.048 46.888 77.424 46.088C78.832 45.256 79.92 44.04 80.688 42.44H88.416C87.296 45.864 85.328 48.536 82.512 50.456C79.728 52.344 76.448 53.288 72.672 53.288C69.472 53.288 66.576 52.568 63.984 51.128C61.424 49.656 59.392 47.624 57.888 45.032C56.416 42.44 55.68 39.496 55.68 36.2ZM104.716 47.672H115.756V53H97.9958V19.496H104.716V47.672ZM139.419 53.336C136.283 53.336 133.403 52.6 130.779 51.128C128.155 49.656 126.075 47.624 124.539 45.032C123.003 42.408 122.235 39.448 122.235 36.152C122.235 32.888 123.003 29.96 124.539 27.368C126.075 24.744 128.155 22.696 130.779 21.224C133.403 19.752 136.283 19.016 139.419 19.016C142.587 19.016 145.467 19.752 148.059 21.224C150.683 22.696 152.747 24.744 154.251 27.368C155.787 29.96 156.555 32.888 156.555 36.152C156.555 39.448 155.787 42.408 154.251 45.032C152.747 47.624 150.683 49.656 148.059 51.128C145.435 52.6 142.555 53.336 139.419 53.336ZM139.419 47.336C141.435 47.336 143.211 46.888 144.747 45.992C146.283 45.064 147.483 43.752 148.347 42.056C149.211 40.36 149.643 38.392 149.643 36.152C149.643 33.912 149.211 31.96 148.347 30.296C147.483 28.6 146.283 27.304 144.747 26.408C143.211 25.512 141.435 25.064 139.419 25.064C137.403 25.064 135.611 25.512 134.043 26.408C132.507 27.304 131.307 28.6 130.443 30.296C129.579 31.96 129.147 33.912 129.147 36.152C129.147 38.392 129.579 40.36 130.443 42.056C131.307 43.752 132.507 45.064 134.043 45.992C135.611 46.888 137.403 47.336 139.419 47.336ZM188.194 19.496V24.92H179.266V53H172.546V24.92H163.618V19.496H188.194ZM224.73 19.496V53H218.01V38.744H203.658V53H196.938V19.496H203.658V33.272H218.01V19.496H224.73ZM246.176 53.336C243.968 53.336 241.984 52.952 240.224 52.184C238.496 51.384 237.136 50.296 236.144 48.92C235.152 47.512 234.64 45.896 234.608 44.072H239.264C239.424 45.64 240.064 46.968 241.184 48.056C242.336 49.112 244 49.64 246.176 49.64C248.256 49.64 249.888 49.128 251.072 48.104C252.288 47.048 252.896 45.704 252.896 44.072C252.896 42.792 252.544 41.752 251.84 40.952C251.136 40.152 250.256 39.544 249.2 39.128C248.144 38.712 246.72 38.264 244.928 37.784C242.72 37.208 240.944 36.632 239.6 36.056C238.288 35.48 237.152 34.584 236.192 33.368C235.264 32.12 234.8 30.456 234.8 28.376C234.8 26.552 235.264 24.936 236.192 23.528C237.12 22.12 238.416 21.032 240.08 20.264C241.776 19.496 243.712 19.112 245.888 19.112C249.024 19.112 251.584 19.896 253.568 21.464C255.584 23.032 256.72 25.112 256.976 27.704H252.176C252.016 26.424 251.344 25.304 250.16 24.344C248.976 23.352 247.408 22.856 245.456 22.856C243.632 22.856 242.144 23.336 240.992 24.296C239.84 25.224 239.264 26.536 239.264 28.232C239.264 29.448 239.6 30.44 240.272 31.208C240.976 31.976 241.824 32.568 242.816 32.984C243.84 33.368 245.264 33.816 247.088 34.328C249.296 34.936 251.072 35.544 252.416 36.152C253.76 36.728 254.912 37.64 255.872 38.888C256.832 40.104 257.312 41.768 257.312 43.88C257.312 45.512 256.88 47.048 256.016 48.488C255.152 49.928 253.872 51.096 252.176 51.992C250.48 52.888 248.48 53.336 246.176 53.336ZM293.356 19.544V53H288.988V37.832H271.948V53H267.58V19.544H271.948V34.232H288.988V19.544H293.356ZM319.822 53.336C316.718 53.336 313.886 52.616 311.326 51.176C308.766 49.704 306.734 47.672 305.23 45.08C303.758 42.456 303.022 39.512 303.022 36.248C303.022 32.984 303.758 30.056 305.23 27.464C306.734 24.84 308.766 22.808 311.326 21.368C313.886 19.896 316.718 19.16 319.822 19.16C322.958 19.16 325.806 19.896 328.366 21.368C330.926 22.808 332.942 24.824 334.414 27.416C335.886 30.008 336.622 32.952 336.622 36.248C336.622 39.544 335.886 42.488 334.414 45.08C332.942 47.672 330.926 49.704 328.366 51.176C325.806 52.616 322.958 53.336 319.822 53.336ZM319.822 49.544C322.158 49.544 324.254 49 326.11 47.912C327.998 46.824 329.47 45.272 330.526 43.256C331.614 41.24 332.158 38.904 332.158 36.248C332.158 33.56 331.614 31.224 330.526 29.24C329.47 27.224 328.014 25.672 326.158 24.584C324.302 23.496 322.19 22.952 319.822 22.952C317.454 22.952 315.342 23.496 313.486 24.584C311.63 25.672 310.158 27.224 309.07 29.24C308.014 31.224 307.486 33.56 307.486 36.248C307.486 38.904 308.014 41.24 309.07 43.256C310.158 45.272 311.63 46.824 313.486 47.912C315.374 49 317.486 49.544 319.822 49.544ZM368.597 29.336C368.597 32.12 367.637 34.44 365.717 36.296C363.829 38.12 360.933 39.032 357.029 39.032H350.597V53H346.229V19.544H357.029C360.805 19.544 363.669 20.456 365.621 22.28C367.605 24.104 368.597 26.456 368.597 29.336ZM357.029 35.432C359.461 35.432 361.253 34.904 362.405 33.848C363.557 32.792 364.133 31.288 364.133 29.336C364.133 25.208 361.765 23.144 357.029 23.144H350.597V35.432H357.029Z" fill="black"/>
<g clip-path="url(#clip0_55_11)">
<path d="M46.7798 23.823C46.7798 23.823 42.3001 15.0105 41.1251 14.3496C39.9501 13.6887 33.4142 13.8355 30.9907 12.8809C30.9907 12.8809 27.9798 16.4059 23.5001 16.4059C19.0204 16.4059 16.0095 12.8809 16.0095 12.8809C13.5126 13.8355 7.0501 13.6887 5.8751 14.3496C4.7001 15.0105 0.146973 23.823 0.146973 23.823C2.64385 29.4777 8.51885 30.7262 8.51885 30.7262L10.8688 27.0543L9.76729 55.4746C15.422 58.7793 19.5345 58.9996 23.5001 58.9996C27.4657 58.9996 31.5048 58.7793 37.1595 55.548L36.0579 27.1277L38.4079 30.7996C38.4079 30.7262 44.3564 29.5512 46.7798 23.823" fill="#F76B6A"/>
<path d="M23.6469 17.2875C22.4719 17.2875 21.3703 17.0672 20.1953 16.6266C19.3141 16.2594 18.3594 15.8188 17.4781 15.2313C16.0094 14.2766 15.0547 13.2484 15.0547 13.2484L16.45 12.1469L15.7891 12.6609L16.45 12.1469C16.45 12.1469 17.2578 13.0281 18.5797 13.9094C19.7547 14.6437 21.5906 15.5984 23.6469 15.5984C25.9969 15.5984 28.2734 14.35 30.4031 12L31.7984 13.1016C30.4766 14.5703 29.1547 15.6719 27.6859 16.3328C26.4375 16.9203 25.1156 17.2875 23.6469 17.2875" fill="black"/>
<path d="M9.54688 29.184C6.97656 28.9637 4.77344 27.7152 3.01094 25.4387C1.98281 24.1168 1.32187 22.7949 1.02812 22.0605L0 24.1168C0.367188 24.8512 0.88125 25.659 1.54219 26.4668C2.57031 27.7887 3.74531 28.8168 4.99375 29.5512C6.09531 30.2121 7.27031 30.6527 8.59219 30.7996L9.54688 29.184" fill="black"/>
<path d="M37.4531 29.2582C40.0234 29.0379 42.2266 27.7895 43.9891 25.5129C45.0172 24.191 45.6781 22.8691 45.9719 22.1348L47 24.1176C46.6328 24.852 46.1188 25.6598 45.4578 26.4676C44.4297 27.7895 43.2547 28.8176 42.0063 29.552C40.9047 30.2129 39.6562 30.6535 38.4078 30.8004L37.4531 29.2582Z" fill="black"/>
</g>
<defs>
<clipPath id="clip0_55_11">
<rect width="47" height="47" fill="white" transform="translate(0 12)"/>
</clipPath>
</defs>
</svg>
